# xmcd
#
# Track frame offsets:
#	150
#	16206
#	33359
#	52928
#	73612
#	83914
#	101453
#	115432
#	132880
#	149858
#
# Disc length: 2156 seconds
#
# Revision: 1
# Processed by: cddbd v1.5.2PL0 Copyright (c) Steve Scherf et al.
# Submitted via: audiograbber 1.83.01
#
DISCID=88086a0a
DTITLE=Jenny Queen - After The Dance
DYEAR=2009
DGENRE=
TTITLE0=Lost Thing
TTITLE1=Shoot The Radio
TTITLE2=Seven Days
TTITLE3=Jim Beam
TTITLE4=Lullaby fot Jane
TTITLE5=I Would Have Danced
TTITLE6=Russian Roulette
TTITLE7=Porch Song
TTITLE8=Headphones
TTITLE9=I Used to Love Her
EXTD=
EXTT0=
EXTT1=
EXTT2=
EXTT3=
EXTT4=
EXTT5=
EXTT6=
EXTT7=
EXTT8=
EXTT9=
PLAYORDER=
